<?xml version="1.0" standalone="no"?>
<!DOCTYPE svg PUBLIC "-//W3C//DTD SVG 20010904//EN"
 "http://www.w3.org/TR/2001/REC-SVG-20010904/DTD/svg10.dtd">
<svg version="1.0" xmlns="http://www.w3.org/2000/svg"
 width="205.000000pt" height="205.000000pt" viewBox="0 0 205.000000 205.000000"
 preserveAspectRatio="xMidYMid meet">
<metadata>
Created by potrace 1.11, written by Peter Selinger 2001-2013
</metadata>
<g transform="translate(0.000000,205.000000) scale(0.100000,-0.100000)"
fill="#000000" stroke="none">
<path d="M866 1805 c3 -6 -6 -19 -20 -29 -29 -19 -46 -21 -46 -5 0 6 7 8 16 5
8 -3 12 -2 9 4 -6 9 8 14 28 11 5 -1 6 3 2 9 -4 6 -16 5 -35 -5 -16 -8 -37
-12 -46 -8 -14 5 -14 3 3 -14 22 -22 23 -66 3 -103 -8 -16 -7 -19 10 -17 11 1
16 5 11 10 -12 12 -1 47 15 47 7 0 16 4 19 10 3 6 -1 7 -9 4 -9 -4 -16 -1 -16
6 0 6 9 14 19 17 11 3 22 12 25 20 3 8 10 11 16 8 5 -3 10 2 10 12 1 17 1 17
11 0 5 -9 8 -21 4 -26 -5 -9 12 -26 28 -26 7 0 8 -2 6 -32 0 -15 -2 -15 -9 2
-7 17 -9 17 -9 3 -1 -22 -19 -24 -27 -3 -4 8 -13 15 -22 15 -13 0 -13 -2 3
-14 26 -18 13 -50 -18 -43 -21 6 -21 5 -3 -8 16 -12 20 -12 35 6 9 11 26 21
38 24 20 3 22 1 17 -28 -3 -18 -8 -39 -10 -47 -4 -10 -2 -12 4 -5 39 40 29
193 -11 168 -6 -4 -8 0 -4 11 4 9 3 15 -2 11 -5 -3 -11 0 -13 7 -2 6 -11 12
-20 14 -10 1 -15 -3 -12 -11z m74 -58 c0 -7 -4 -6 -10 3 -7 11 -10 11 -10 2 0
-7 -5 -10 -11 -6 -8 4 -7 9 2 15 15 9 29 3 29 -14z"/>
<path d="M695 1760 c-10 -11 -14 -20 -9 -20 5 0 15 9 22 20 7 11 11 20 9 20
-2 0 -12 -9 -22 -20z"/>
<path d="M700 1721 c-19 -19 -26 -27 -14 -18 11 9 25 17 31 17 10 0 28 30 21
34 -2 1 -19 -14 -38 -33z"/>
<path d="M1028 1742 l-57 -3 15 -41 c73 -207 -138 -416 -346 -343 -23 8 -44
15 -46 15 -2 0 -4 -252 -4 -560 l0 -560 33 0 c50 -1 849 -1 875 -1 l22 1 0
745 0 745 -27 0 c-235 4 -419 4 -465 2z m112 -992 l0 -45 57 2 c99 3 93 14 93
-168 l0 -159 -235 0 -235 0 0 164 0 164 43 0 c112 0 107 -2 107 40 0 21 2 41
4 43 3 2 41 4 85 4 l81 0 0 -45z"/>
<path d="M990 744 c0 -31 1 -32 49 -36 73 -5 81 -1 81 36 l0 32 -65 0 -65 0 0
-32z"/>
<path d="M839 676 c-1 -14 -1 -234 0 -258 1 -17 18 -18 219 -18 l217 0 0 144
0 144 -217 0 c-156 0 -218 -3 -219 -12z m242 -28 c1 -7 0 -29 -1 -48 l-1 -35
48 0 c45 0 48 -2 51 -27 3 -26 1 -27 -45 -30 l-48 -3 -5 -45 c-3 -28 -10 -45
-17 -44 -7 1 -19 2 -27 3 -10 1 -14 14 -13 44 l2 42 -45 5 c-40 4 -45 8 -45
30 0 22 5 26 45 30 42 5 45 7 46 35 2 52 3 55 29 55 14 0 25 -6 26 -12z"/>
<path d="M1044 598 l1 -43 -47 -3 c-27 -2 -48 -7 -48 -12 0 -5 21 -10 48 -12
l47 -3 0 -48 c0 -27 4 -46 10 -44 5 2 10 24 10 48 l0 44 48 3 c62 4 61 22 -2
22 l-48 0 2 45 c2 30 -1 45 -9 45 -8 0 -12 -16 -12 -42z"/>
<path d="M659 1713 c-13 -16 -12 -17 4 -4 9 7 17 15 17 17 0 8 -8 3 -21 -13z"/>
<path d="M700 1695 c-7 -8 -9 -15 -6 -15 4 0 14 7 22 15 9 8 11 15 6 15 -5 0
-15 -7 -22 -15z"/>
<path d="M740 1690 c-6 -12 -21 -20 -36 -20 -29 0 -81 -43 -95 -78 -5 -13 -13
-21 -18 -17 -5 3 -13 0 -16 -6 -5 -7 0 -10 11 -7 10 2 23 13 29 24 13 26 68
74 85 74 6 0 8 -5 4 -12 -4 -6 4 -3 19 8 14 10 28 27 30 37 7 23 0 22 -13 -3z"/>
<path d="M629 1673 c-13 -16 -12 -17 4 -4 9 7 17 15 17 17 0 8 -8 3 -21 -13z"/>
<path d="M594 1636 c-16 -8 -19 -16 -13 -31 4 -12 8 -14 8 -6 1 8 8 23 18 33
18 20 17 21 -13 4z"/>
<path d="M810 1634 c0 -24 26 -34 46 -18 18 14 18 15 -3 4 -18 -8 -24 -7 -32
7 -6 10 -11 13 -11 7z"/>
<path d="M669 1610 l-24 -20 27 13 c16 6 28 15 28 20 0 11 -6 9 -31 -13z"/>
<path d="M903 1618 c-6 -7 -21 -32 -33 -56 -15 -25 -29 -41 -37 -38 -8 4 -13
-3 -12 -17 0 -12 3 -16 6 -9 2 6 9 12 15 12 6 0 7 -7 4 -16 -5 -14 -4 -15 8
-5 9 7 18 21 21 32 4 11 11 16 17 13 7 -5 9 2 4 21 -5 18 -2 35 9 51 16 25 15
33 -2 12z m-29 -83 c-9 -14 -18 -25 -21 -25 -5 0 5 18 20 38 17 22 18 13 1
-13z"/>
<path d="M537 1605 c-9 -8 -20 -15 -25 -15 -15 0 -23 -28 -10 -36 7 -4 8 -3 4
4 -6 10 27 36 46 37 13 0 19 13 9 19 -5 3 -16 -1 -24 -9z"/>
<path d="M732 1597 c-12 -13 -22 -27 -22 -33 0 -5 5 -1 11 10 9 15 13 16 21 5
8 -11 9 -10 5 3 -3 9 -1 19 6 21 7 2 9 7 6 11 -3 3 -15 -4 -27 -17z"/>
<path d="M669 1572 c-10 -11 -14 -24 -9 -36 6 -19 7 -19 15 0 8 20 17 54 12
53 -1 0 -9 -8 -18 -17z"/>
<path d="M825 1581 c-3 -5 -2 -12 3 -15 5 -3 9 1 9 9 0 17 -3 19 -12 6z"/>
<path d="M611 1560 c-31 -26 -17 -26 16 0 14 11 22 20 17 20 -5 -1 -20 -10
-33 -20z"/>
<path d="M528 1541 c5 -23 3 -25 -11 -12 -21 16 -23 5 -3 -15 11 -11 16 -11
19 -1 3 6 6 2 6 -10 1 -25 48 -66 68 -59 7 3 16 -2 21 -11 7 -11 11 -12 17 -4
5 9 10 9 20 1 18 -15 35 -4 35 21 0 11 -5 17 -10 14 -6 -4 -8 -10 -5 -15 3 -5
0 -12 -6 -16 -8 -4 -9 -3 -5 4 4 7 1 12 -8 12 -8 0 -17 8 -19 18 -4 16 -5 16
-6 0 -1 -20 -16 -24 -27 -7 -3 6 0 15 7 20 8 5 9 9 3 9 -6 0 -17 -7 -24 -15
-7 -8 -18 -15 -24 -14 -6 0 -5 3 2 6 10 4 6 13 -14 34 -16 17 -25 35 -22 47 3
10 0 19 -7 19 -7 0 -10 -10 -7 -26z m36 -57 c3 -8 2 -12 -4 -9 -6 3 -10 10
-10 16 0 14 7 11 14 -7z"/>
<path d="M750 1551 c0 -6 4 -13 10 -16 6 -3 7 1 4 9 -7 18 -14 21 -14 7z"/>
<path d="M625 1529 c-4 -6 -4 -13 -1 -16 3 -4 6 -1 6 6 0 7 5 9 10 6 6 -3 10
-1 10 4 0 14 -17 14 -25 0z"/>
<path d="M721 1518 c-1 -10 -6 -18 -12 -18 -5 0 -7 -5 -3 -11 9 -15 28 16 20
34 -2 7 -5 4 -5 -5z"/>
<path d="M590 1504 c0 -8 5 -12 10 -9 6 4 8 11 5 16 -9 14 -15 11 -15 -7z"/>
<path d="M681 1494 c0 -11 3 -14 6 -6 3 7 2 16 -1 19 -3 4 -6 -2 -5 -13z"/>
<path d="M747 1491 c-4 -17 -3 -21 5 -13 5 5 8 16 6 23 -3 8 -7 3 -11 -10z"/>
<path d="M785 1489 c-4 -6 -5 -12 -2 -15 2 -3 7 2 10 11 7 17 1 20 -8 4z"/>
<path d="M804 1464 c-18 -14 -18 -15 4 -4 12 6 22 13 22 15 0 8 -5 6 -26 -11z"/>
<path d="M713 1441 c1 -13 6 -17 22 -12 17 4 18 6 2 9 -9 2 -15 8 -12 13 4 5
2 9 -4 9 -5 0 -9 -8 -8 -19z"/>
<path d="M765 1450 c-3 -5 -1 -10 4 -10 6 0 11 5 11 10 0 6 -2 10 -4 10 -3 0
-8 -4 -11 -10z"/>
</g>
</svg>
